<?xml version="1.0" encoding="utf-8"?>
<!-- Generator: Adobe Illustrator 16.0.0, SVG Export Plug-In . SVG Version: 6.00 Build 0)  -->
<!DOCTYPE svg PUBLIC "-//W3C//DTD SVG 1.1//EN" "http://www.w3.org/Graphics/SVG/1.1/DTD/svg11.dtd">
<svg version="1.1" id="Layer_1" xmlns="http://www.w3.org/2000/svg" xmlns:xlink="http://www.w3.org/1999/xlink" x="0px" y="0px"
	 width="280px" height="110px" viewBox="0 0 280 110" enable-background="new 0 0 280 110" xml:space="preserve">
<g>
	<path fill="#5E5F61" d="M130.919,41.237v-16.34c0-3.225-0.993-3.492-2.1-3.492c-2.285,0-3.881,3-3.881,7.297v12.535h-7.637v-16.34
		c0-2.92-0.769-3.492-2.097-3.492c-2.336,0-4.032,3.069-4.032,7.297v12.535h-7.679V21.415c-1.118-0.109-3.102-0.218-4.571-0.298
		c-0.802-0.044-1.473-0.081-1.879-0.109l-0.708-0.05v-5.336L97,15.536c2.443-0.315,7.295-0.481,10.825-0.481
		c0.873,0,1.637,0.009,2.273,0.03l0.739,0.021v0.74c0,0.436-0.013,0.965-0.039,1.537c1.608-1.877,3.66-2.792,6.254-2.792
		c3.944,0,5.849,2.018,6.765,3.849c1.605-2.589,3.849-3.849,6.849-3.849c2.225,0,4.027,0.577,5.356,1.715
		c1.746,1.495,2.631,3.936,2.63,7.255v17.677L130.919,41.237L130.919,41.237z M137.693,40.275V23.56
		c0-5.314-2.364-8.008-7.028-8.008c-4.053,0-5.757,2.581-6.789,4.829l-0.239,0.522l-0.137-0.558
		c-0.438-1.79-1.858-4.792-6.446-4.792c-3.214,0-5.451,1.535-7.039,4.832l-0.055,0.113h-0.354l-0.02-0.227
		c0.19-1.391,0.281-3.084,0.291-4.23c-0.591-0.015-1.286-0.023-2.049-0.023c-3.412,0-8.067,0.154-10.527,0.451v3.593
		c0.409,0.026,0.996,0.059,1.662,0.095c1.895,0.104,4.49,0.245,5.332,0.389l0.167,0.029v19.701h5.754V28.702
		c0-4.863,2.054-8.259,4.994-8.259c2.695,0,3.059,2.251,3.059,4.454v15.378h5.713V28.702c0-4.863,1.992-8.259,4.843-8.259
		c2.698,0,3.062,2.251,3.062,4.454v15.378H137.693z"/>
	<path fill="#5E5F61" d="M103.696,83.143V52.679c-1.183-0.12-3.279-0.237-4.831-0.324l-0.304-0.017
		c-0.626-0.035-1.161-0.064-1.514-0.089l-0.71-0.048v-5.523l0.666-0.084c2.716-0.346,7.802-0.504,11.379-0.504
		c0.966,0,1.838,0.011,2.595,0.032l0.741,0.021v37H103.696L103.696,83.143z M110.754,82.18V47.077
		c-0.705-0.018-1.509-0.025-2.372-0.025c-3.467,0-8.363,0.148-11.083,0.474v3.776c0.39,0.024,0.932,0.055,1.547,0.089
		c2,0.111,4.739,0.264,5.645,0.42l0.166,0.029v30.34H110.754z"/>
	<path fill="#5E5F61" d="M124.676,83.656c-5.3,0-11.617-2.377-11.617-13.7c0-8.59,5.202-14.59,12.649-14.59
		c3.725,0,6.625,1.192,8.62,3.545c1.987,2.343,2.995,5.745,2.994,10.112C137.322,77.502,132.003,83.656,124.676,83.656z
		 M125.708,56.329c-6.881,0-11.686,5.604-11.686,13.627c0,8.452,3.584,12.737,10.655,12.737c6.879,0,11.684-5.62,11.684-13.67
		C136.361,60.837,132.578,56.329,125.708,56.329z M125.189,77.454c-3.576,0-5.389-2.751-5.389-8.175
		c0-5.729,2.955-7.764,5.485-7.764c3.518,0,5.301,2.646,5.301,7.865C130.586,74.361,128.518,77.454,125.189,77.454z M125.286,62.479
		c-2.086,0-4.523,1.78-4.523,6.801c0,4.853,1.448,7.212,4.426,7.212c2.735,0,4.435-2.724,4.436-7.109
		C129.625,62.479,126.359,62.479,125.286,62.479z"/>
	<path fill="#5E5F61" d="M197.23,41.237V24.749c0-2.797-0.806-3.344-2.195-3.344c-2.75,0-3.98,3.616-3.98,7.201v12.631h-7.683
		V21.394c-0.47-0.069-0.995-0.139-1.532-0.202l-0.673-0.079v-5.742l0.696-0.06c1.928-0.167,4.047-0.255,6.128-0.255
		c0.674,0,1.339,0.009,1.985,0.029l0.738,0.02v0.741c0,0.451-0.013,0.95-0.035,1.45c1.568-1.819,3.635-2.706,6.297-2.706
		c5.117,0,7.937,3.063,7.937,8.626v18.021H197.23z M190.092,40.276V28.607c0-4.959,1.94-8.163,4.943-8.163
		c2.8,0,3.158,2.301,3.158,4.306v15.525h5.757V23.216c0-5.085-2.347-7.664-6.974-7.664c-3.358,0-5.426,1.4-7.134,4.833l-0.125,0.252
		l-0.271-0.275l-0.028-0.152c0.22-1.169,0.324-2.935,0.334-4.17c-0.575-0.015-1.164-0.022-1.762-0.022
		c-1.981,0-4.005,0.081-5.862,0.235v4.004c0.739,0.089,1.452,0.19,2.037,0.288l0.167,0.028v19.703H190.092z"/>
	<path fill="#5E5F61" d="M255.127,83.711c-6.221,0-9.646-4.557-9.646-12.827c0-9.395,5.539-15.466,14.113-15.466
		c0.762,0,1.139,0.024,1.684,0.093v-2.852c-0.512-0.077-1.059-0.148-1.592-0.206l-0.68-0.074V46.42l0.696-0.06
		c2.039-0.177,4.306-0.271,6.553-0.271c0.755,0,1.509,0.01,2.251,0.032l0.74,0.021v30.493c1.163,0.117,3.246,0.233,4.788,0.32
		c0.817,0.045,1.458,0.08,1.858,0.109l0.707,0.049v5.521l-0.664,0.085c-2.658,0.346-7.648,0.504-11.16,0.504
		c-0.896,0-1.689-0.01-2.354-0.029l-0.739-0.022v-0.739c0-0.483,0.014-1.004,0.039-1.529
		C260.081,82.742,257.812,83.711,255.127,83.711z M259.596,56.382c-7.99,0-13.152,5.692-13.152,14.503
		c0,5.413,1.507,11.865,8.686,11.865c3.405,0,5.874-1.6,7.337-4.752l0.054-0.116h0.463l-0.032,0.229
		c-0.179,1.218-0.292,2.779-0.302,4.128c0.615,0.015,1.341,0.021,2.129,0.021c3.404,0,8.203-0.146,10.861-0.473V78.01
		c-0.412-0.025-1-0.06-1.664-0.097c-1.957-0.108-4.637-0.261-5.521-0.41l-0.167-0.028V47.077c-0.671-0.018-1.349-0.025-2.029-0.025
		c-2.153,0-4.323,0.087-6.286,0.252v4.213c0.717,0.081,1.457,0.185,2.104,0.295l0.167,0.028v4.773l-0.437-0.062
		C260.861,56.421,260.577,56.382,259.596,56.382z M257.057,77.662c-2.914,0-4.214-2.312-4.214-7.5c0-7.398,3.56-8.952,6.544-8.952
		c0.932,0,1.348,0.101,2.104,0.282l0.747,0.175v7.356C262.238,73.009,260.881,77.662,257.057,77.662z M259.387,62.171
		c-3.703,0-5.58,2.688-5.58,7.99c0,5.763,1.644,6.539,3.25,6.539c2.916,0,4.221-3.856,4.221-7.679v-6.594l-0.016-0.004
		C260.559,62.256,260.206,62.171,259.387,62.171z"/>
	<path fill="#5E5F61" d="M215.699,41.779c-5.227,0-7.987-2.982-7.987-8.623V21.395c-0.495-0.074-1.022-0.145-1.562-0.211
		l-0.67-0.082v-5.71l0.696-0.062c2.046-0.18,4.288-0.276,6.486-0.276c0.69,0,1.375,0.01,2.037,0.03l0.739,0.02v16.519
		c0,2.781,0.84,3.34,2.192,3.34c2.75,0,3.979-3.614,3.979-7.197V15.135h7.685v19.841c1.117,0.165,2.415,0.307,3.509,0.385
		l0.707,0.052v5.331l-0.662,0.087c-2.377,0.312-5.246,0.483-8.078,0.483c-0.69,0-1.373-0.01-2.029-0.031l-0.737-0.023v-0.738
		c0-0.399,0.007-0.933,0.027-1.524C220.462,40.868,218.383,41.779,215.699,41.779z M206.443,20.251
		c0.746,0.092,1.459,0.196,2.062,0.293l0.168,0.027v12.583c0,5.083,2.363,7.661,7.024,7.661c4.195,0,5.935-2.442,7.082-4.831
		l0.088-0.182l0.417,0.205l-0.026,0.148c-0.236,1.334-0.285,3.114-0.29,4.17c0.589,0.017,1.191,0.024,1.806,0.024
		c2.723,0,5.477-0.16,7.778-0.451v-3.593c-1.312-0.1-2.88-0.286-4.049-0.48l-0.167-0.028v-19.7h-5.759v11.669
		c0,4.957-1.94,8.159-4.942,8.159c-2.795,0-3.152-2.299-3.152-4.302V16.04c-0.596-0.016-1.201-0.023-1.817-0.023
		c-2.103,0-4.249,0.088-6.222,0.256V20.251L206.443,20.251z"/>
	<path fill="#5E5F61" d="M230.805,83.143V62.371c-0.359-0.055-0.744-0.107-1.144-0.157l-0.67-0.083v-6.046l0.702-0.056
		c1.875-0.15,3.918-0.23,5.908-0.23c0.707,0,1.402,0.01,2.08,0.03l0.74,0.021v0.74c0,0.512-0.021,1.114-0.061,1.743
		c1.586-2.002,3.728-3.055,6.23-3.055c0.26,0,0.525,0.012,0.797,0.036l0.732,0.058l-0.383,8.157l-0.875-0.187
		c-0.512-0.106-0.992-0.161-1.428-0.161c-3.137,0-4.66,2.842-4.66,8.688v11.271h-7.971V83.143z M237.814,82.18V71.869
		c0-6.402,1.893-9.648,5.623-9.648c0.439,0,0.908,0.045,1.396,0.137l0.286-6.1c-0.18-0.012-0.354-0.017-0.525-0.017
		c-4.127,0-6.139,3.073-7.1,5.653l-0.049,0.131h-0.478l0.039-0.233c0.298-1.772,0.438-3.748,0.452-5.007
		c-0.605-0.018-1.229-0.023-1.857-0.023c-1.892,0-3.84,0.072-5.647,0.211v4.309c0.597,0.076,1.157,0.162,1.644,0.238l0.17,0.026
		V82.18H237.814z"/>
	<path fill="#5E5F61" d="M212.137,83.654c-4.914,0-7.969-2.889-7.969-7.539c0-6.086,5.576-9.975,14.568-10.182v-0.643
		c0-2.059-0.695-3.334-4.161-3.334c-2.229,0-5.142,0.791-7.08,1.923l-1.022,0.599l-0.738-7.309l0.555-0.204
		c2.904-1.067,6.208-1.657,9.303-1.657c7.829,0,11.17,2.909,11.17,9.726v11.622c0.225,0.032,1.363,0.188,1.363,0.188v6.131
		l-0.705,0.053c-1.727,0.129-3.579,0.197-5.357,0.197c-0.711,0-1.412-0.013-2.082-0.033l-0.737-0.024v-0.735
		c0-0.599,0.009-1.151,0.026-1.666C217.503,82.607,214.938,83.654,212.137,83.654z M219.498,66.891
		c-8.997,0-14.368,3.448-14.368,9.227c0,4.119,2.618,6.578,7.005,6.578c3.57,0,6.668-1.883,7.893-4.797l0.117-0.277l0.28,0.286
		l0.034,0.149c-0.168,1.112-0.25,2.445-0.256,4.182c0.604,0.018,1.225,0.025,1.857,0.025c1.681,0,3.438-0.062,5.101-0.18v-4.398
		c-0.431-0.06-0.836-0.117-1.198-0.182l-0.165-0.029V65.035c0-6.225-2.957-8.764-10.207-8.764c-2.887,0-6.094,0.562-8.825,1.545
		l0.512,5.08c2.088-1.143,4.976-1.899,7.297-1.899c3.544,0,5.125,1.325,5.125,4.296v1.598H219.498z M214.118,78.023
		c-1.941,0-3.195-1.156-3.195-2.947c0-2.887,2.806-4.288,8.577-4.288h0.2v0.821C219.7,74.693,217.566,78.023,214.118,78.023z
		 M218.734,71.761c-6.853,0.162-6.852,2.532-6.852,3.315c0,1.262,0.814,1.984,2.234,1.984
		C216.917,77.062,218.669,74.339,218.734,71.761z"/>
	<path fill="#5E5F61" d="M189.182,83.656c-3.848,0-6.132-0.446-9-1.27l-0.553-0.158V52.657c-0.314-0.046-1.488-0.202-1.488-0.202
		l-0.175-0.023v-6.066l0.704-0.054c1.904-0.146,3.92-0.221,5.989-0.221c0.752,0,1.505,0.01,2.252,0.03l0.741,0.019v9.52
		c0,0.587-0.022,1.285-0.063,1.984c1.421-1.533,3.277-2.278,5.657-2.278c6.388,0,10.052,4.674,10.052,12.823
		C203.298,77.729,197.889,83.656,189.182,83.656z M180.591,81.505c2.718,0.772,4.923,1.188,8.591,1.188
		c8.236,0,13.153-5.422,13.153-14.502c0-7.649-3.228-11.861-9.089-11.861c-3.124,0-5.137,1.367-6.525,4.434l-0.054,0.118h-0.371
		l-0.008-0.237c0.265-1.388,0.401-3.558,0.401-4.982v-8.583c-0.674-0.017-1.354-0.024-2.03-0.024c-1.99,0-3.917,0.068-5.729,0.203
		v4.332c0.539,0.071,1.053,0.143,1.496,0.223l0.165,0.03V81.505L180.591,81.505z M189.641,77.818c-1.406,0-1.877-0.16-2.812-0.479
		l-0.136-0.047l-0.004-7.392c0-5.394,1.705-8.486,4.679-8.486c3.038,0,4.516,2.439,4.516,7.456
		C195.884,74.893,193.842,77.818,189.641,77.818z M187.652,76.602c0.551,0.174,0.979,0.256,1.988,0.256
		c4.733,0,5.28-4.559,5.28-7.986c0-5.821-2.028-6.494-3.554-6.494c-3.354,0-3.717,5.262-3.717,7.523v6.701H187.652z"/>
	<path fill="#5E5F61" d="M168.391,83.143V66.07c0-3.412-1.056-3.694-2.231-3.694c-2.476,0-4.272,3.229-4.272,7.681v13.086h-7.921
		V66.07c0-3.09-0.817-3.694-2.231-3.694c-2.477,0-4.271,3.229-4.271,7.681v13.086h-7.97V62.372
		c-0.353-0.054-1.614-0.226-1.614-0.226l-0.173-0.022v-6.039l0.703-0.056c1.887-0.15,3.929-0.229,5.903-0.229
		c0.703,0,1.394,0.011,2.058,0.029l0.739,0.022v0.738c0,0.508-0.016,1.1-0.047,1.715c1.692-2.015,3.858-2.996,6.603-2.996
		c4.158,0,6.144,2.146,7.089,4.087c1.725-2.75,4.128-4.087,7.338-4.087c2.706,0,4.795,0.808,6.207,2.4
		c1.406,1.586,2.119,3.928,2.118,6.961v18.471h-8.026V83.143z M175.452,82.18V64.672c0-5.572-2.478-8.398-7.363-8.398
		c-3.337,0-5.721,1.656-7.289,5.062l-0.239,0.521l-0.137-0.558c-0.46-1.879-1.949-5.028-6.761-5.028c-3.37,0-5.72,1.609-7.394,5.067
		l-0.056,0.113h-0.354l-0.02-0.228c0.197-1.465,0.293-3.277,0.303-4.439c-0.595-0.018-1.207-0.024-1.832-0.024
		c-1.881,0-3.828,0.073-5.646,0.212v4.311c0.588,0.08,1.141,0.16,1.619,0.236l0.168,0.026V82.18h6.046V70.057
		c0-5.008,2.2-8.643,5.232-8.643c2.815,0,3.195,2.354,3.195,4.656V82.18h5.996V70.057c0-5.008,2.201-8.643,5.234-8.643
		c2.814,0,3.195,2.354,3.195,4.656V82.18H175.452z"/>
	<path fill="#5E5F61" d="M147.996,41.733c-4.719,0-7.648-2.775-7.648-7.243c0-5.823,5.327-9.551,13.917-9.756v-0.577
		c0-1.943-0.658-3.147-3.939-3.147c-2.125,0-4.898,0.749-6.744,1.822l-1.021,0.594l-0.713-7.058l0.557-0.203
		c2.777-1.016,5.936-1.575,8.892-1.575c7.503,0,10.704,2.787,10.704,9.317v11.067c0.277,0.041,1.538,0.206,1.538,0.206v5.87
		l-0.702,0.056c-1.717,0.135-3.578,0.207-5.385,0.207c-0.669,0-1.326-0.009-1.959-0.029l-0.739-0.023v-0.739
		c0-0.537,0.007-1.035,0.021-1.501C153.081,40.751,150.645,41.733,147.996,41.733z M155.027,25.688
		c-8.59,0-13.719,3.291-13.719,8.803c0,3.933,2.5,6.281,6.687,6.281c3.401,0,6.356-1.797,7.528-4.579l0.123-0.293l0.272,0.308
		l0.031,0.143c-0.157,1.056-0.233,2.324-0.239,3.977c0.562,0.015,1.145,0.023,1.736,0.023c1.713,0,3.479-0.065,5.125-0.188v-4.135
		c-0.495-0.066-0.965-0.133-1.371-0.2l-0.168-0.027V23.909c0-5.936-2.822-8.357-9.74-8.357c-2.754,0-5.812,0.533-8.417,1.465
		l0.487,4.832c1.992-1.083,4.746-1.801,6.959-1.801c3.392,0,4.904,1.268,4.904,4.109v1.53L155.027,25.688L155.027,25.688z
		 M149.887,36.322c-1.857,0-3.06-1.107-3.06-2.821c0-2.764,2.683-4.108,8.202-4.108h0.199v0.794
		C155.229,33.138,153.188,36.322,149.887,36.322z M154.264,30.366c-6.475,0.163-6.475,2.397-6.475,3.136
		c0,1.181,0.766,1.858,2.098,1.858C152.527,35.36,154.188,32.801,154.264,30.366z"/>
	<path fill="#5E5F61" d="M165.214,41.237V21.393c-0.31-0.046-0.651-0.093-1.028-0.14l-0.668-0.084v-5.844l0.701-0.056
		c1.781-0.142,3.709-0.217,5.573-0.217c0.688,0,1.368,0.01,2.026,0.031l0.738,0.022v0.739c0,0.466-0.018,0.995-0.052,1.556
		c1.515-1.862,3.542-2.842,5.902-2.842c0.249,0,0.505,0.012,0.767,0.033l0.733,0.061l-0.37,7.864l-0.876-0.186
		c-0.486-0.103-0.943-0.154-1.356-0.154c-2.97,0-4.412,2.7-4.412,8.254v10.806L165.214,41.237L165.214,41.237z M171.932,40.275
		v-9.844c0-6.115,1.809-9.216,5.373-9.216c0.416,0,0.861,0.044,1.327,0.13l0.272-5.807c-0.17-0.011-0.334-0.016-0.496-0.016
		c-3.93,0-5.85,2.931-6.768,5.39l-0.049,0.13h-0.375l-0.058-0.233c0.304-1.792,0.422-3.64,0.435-4.768
		c-0.588-0.016-1.191-0.024-1.803-0.024c-1.783,0-3.615,0.068-5.312,0.199v4.107c0.555,0.071,1.078,0.146,1.53,0.223l0.167,0.028
		v19.702L171.932,40.275L171.932,40.275z"/>
	<path fill="#C9CBCC" d="M131.403,40.756V24.897c0-2.859-0.724-3.973-2.582-3.973c-2.568,0-4.362,3.198-4.362,7.778v12.054h-6.675
		V24.897c0-2.859-0.723-3.973-2.579-3.973c-2.615,0-4.513,3.271-4.513,7.778v12.054h-6.716V20.984
		c-0.995-0.128-3.304-0.254-5.027-0.348c-0.785-0.043-1.463-0.08-1.873-0.109l-0.261-0.019v-4.466l0.245-0.032
		c2.427-0.312,7.251-0.476,10.763-0.476c0.854,0,1.624,0.01,2.258,0.029l0.272,0.008v0.272c0,0.835-0.047,2.021-0.15,3.176
		c1.625-2.655,3.875-3.95,6.846-3.95c4.429,0,6.093,2.721,6.703,4.453c1.126-2.197,2.979-4.453,6.91-4.453
		c4.912,0,7.508,2.935,7.508,8.489v17.196h-6.767V40.756z"/>
	<path fill="#E7EAEB" d="M104.176,82.661V52.25c-1.061-0.141-3.532-0.278-5.374-0.38c-0.716-0.04-1.332-0.074-1.723-0.101
		l-0.262-0.018v-4.65l0.245-0.031c2.699-0.344,7.759-0.5,11.319-0.5c0.948,0,1.826,0.011,2.58,0.032l0.273,0.007v36.052H104.176z"/>
	<path fill="#E7EAEB" d="M124.677,83.175c-7.286,0-11.136-4.571-11.136-13.218c0-8.307,5.003-14.107,12.167-14.107
		c7.18,0,11.133,4.678,11.133,13.174C136.842,77.223,131.726,83.175,124.677,83.175z M125.286,61.998
		c-2.309,0-5.004,1.908-5.004,7.283c0,5.104,1.651,7.693,4.908,7.693c3.033,0,4.917-2.91,4.917-7.593
		C130.105,64.414,128.529,61.998,125.286,61.998z"/>
	<path fill="#C9CBCC" d="M197.713,40.756V24.75c0-2.717-0.775-3.826-2.678-3.826c-3.293,0-4.462,4.138-4.462,7.682v12.15h-6.72
		V20.98c-0.58-0.092-1.261-0.185-1.957-0.266l-0.248-0.029v-4.873l0.256-0.022c1.914-0.166,4.019-0.253,6.087-0.253
		c0.67,0,1.329,0.009,1.971,0.028l0.272,0.008v0.273c0,0.895-0.049,2.061-0.156,3.112c1.264-2.073,3.188-3.886,6.9-3.886
		c4.877,0,7.455,2.816,7.455,8.145v17.54L197.713,40.756L197.713,40.756z"/>
	<path fill="#E7EAEB" d="M255.127,83.23c-5.911,0-9.167-4.385-9.167-12.348c0-9.104,5.353-14.984,13.634-14.984
		c0.975,0,1.309,0.041,2.163,0.162v-3.814c-0.626-0.102-1.334-0.197-2.021-0.272l-0.25-0.027v-5.086l0.257-0.022
		c2.032-0.176,4.284-0.269,6.512-0.269c0.75,0,1.499,0.011,2.236,0.032l0.272,0.008v30.455c1.045,0.137,3.467,0.271,5.271,0.373
		c0.759,0.041,1.412,0.078,1.818,0.106l0.264,0.019v4.65l-0.245,0.032c-2.638,0.342-7.603,0.498-11.101,0.498l0,0
		c-0.879,0-1.678-0.011-2.338-0.029l-0.272-0.008v-0.272c0-0.99,0.059-2.115,0.157-3.145C260.734,81.906,258.32,83.23,255.127,83.23
		z M259.387,61.689c-4.023,0-6.062,2.851-6.062,8.472c0,4.92,1.116,7.021,3.731,7.021c3.469,0,4.699-4.396,4.699-8.16v-6.975
		l-0.386-0.091C260.654,61.786,260.258,61.689,259.387,61.689z"/>
	<path fill="#C9CBCC" d="M215.699,41.298c-4.911,0-7.508-2.815-7.508-8.142V20.981c-0.592-0.093-1.274-0.189-1.981-0.275
		l-0.247-0.03v-4.843l0.256-0.022c2.03-0.179,4.258-0.274,6.445-0.274c0.688,0,1.365,0.01,2.023,0.028l0.272,0.008v16.051
		c0,2.714,0.772,3.821,2.673,3.821c3.295,0,4.463-4.136,4.463-7.678v-12.15h6.721v19.774c1.179,0.187,2.701,0.361,3.955,0.451
		l0.262,0.019v4.462l-0.245,0.032c-2.354,0.308-5.202,0.478-8.015,0.478c-0.688,0-1.361-0.01-2.017-0.031l-0.271-0.008v-0.272
		c0-0.757,0.021-2.008,0.134-3.198C221.391,39.433,219.491,41.298,215.699,41.298z"/>
	<path fill="#E7EAEB" d="M231.287,82.661V61.958c-0.473-0.073-1.008-0.151-1.566-0.222l-0.246-0.029v-5.178l0.258-0.021
		c1.865-0.148,3.896-0.229,5.869-0.229c0.703,0,1.396,0.011,2.067,0.029l0.272,0.008v0.273c0,0.85-0.062,2.182-0.229,3.624
		c1.192-2.282,3.276-4.455,6.881-4.455c0.246,0,0.498,0.011,0.759,0.031l0.271,0.022l-0.333,7.127l-0.323-0.068
		c-0.54-0.114-1.054-0.171-1.526-0.171c-3.41,0-5.141,3.084-5.141,9.168V82.66L231.287,82.661L231.287,82.661z"/>
	<path fill="#E7EAEB" d="M212.137,83.175c-4.619,0-7.488-2.704-7.488-7.059c0-5.927,5.574-9.632,14.569-9.707v-1.117
		c0-2.709-1.345-3.815-4.644-3.815c-2.309,0-5.319,0.818-7.322,1.988l-0.377,0.221l-0.624-6.191l0.204-0.075
		c2.854-1.05,6.097-1.627,9.136-1.627c7.492,0,10.688,2.765,10.688,9.244V77.07c0.345,0.057,0.724,0.109,1.119,0.162l0.244,0.033
		v5.266l-0.262,0.02c-1.72,0.129-3.562,0.196-5.32,0.196l0,0c-0.705,0-1.397-0.011-2.065-0.032l-0.272-0.009v-0.272
		c0-1.22,0.036-2.248,0.111-3.146C218.271,81.684,215.387,83.175,212.137,83.175z M219.218,71.271
		c-5.258,0.041-7.813,1.287-7.813,3.805c0,1.545,1.016,2.467,2.715,2.467c3.148,0,5.102-3.081,5.102-5.934L219.218,71.271
		L219.218,71.271z"/>
	<path fill="#E7EAEB" d="M189.182,83.175c-3.787,0-6.039-0.438-8.869-1.25l-0.203-0.058V52.245c-0.43-0.071-0.916-0.137-1.418-0.203
		l-0.243-0.032v-5.199l0.259-0.02c1.889-0.145,3.893-0.219,5.952-0.219c0.748,0,1.495,0.01,2.237,0.03l0.273,0.007v9.052
		c0,0.983-0.062,2.35-0.197,3.589c1.438-2.341,3.42-3.4,6.271-3.4c6.082,0,9.57,4.498,9.57,12.34
		C202.814,77.434,197.592,83.175,189.182,83.175z M187.171,76.948c0.788,0.267,1.235,0.39,2.47,0.39c3.877,0,5.762-2.77,5.762-8.468
		c0-4.693-1.318-6.976-4.034-6.976c-3.788,0-4.197,5.6-4.197,8.006V76.948L187.171,76.948z"/>
	<path fill="#E7EAEB" d="M168.874,82.661V66.07c0-3.004-0.761-4.176-2.714-4.176c-2.754,0-4.753,3.434-4.753,8.164v12.604h-6.96
		V66.07c0-3.004-0.76-4.176-2.713-4.176c-2.754,0-4.752,3.434-4.752,8.164v12.604h-7.008V61.958
		c-0.466-0.072-0.991-0.147-1.544-0.222l-0.243-0.033v-5.176l0.259-0.021c1.874-0.146,3.902-0.229,5.867-0.229
		c0.698,0,1.383,0.012,2.043,0.031l0.271,0.008v0.271c0,0.881-0.051,2.146-0.162,3.381c1.708-2.811,4.073-4.181,7.199-4.181
		c4.66,0,6.393,2.883,7.02,4.692c1.654-3.156,4.084-4.692,7.407-4.692c5.206,0,7.845,2.987,7.845,8.88v17.99L168.874,82.661
		L168.874,82.661z"/>
	<path fill="#C9CBCC" d="M147.997,41.252c-4.42,0-7.167-2.591-7.167-6.762c0-5.665,5.324-9.207,13.918-9.283v-1.05
		c0-2.577-1.281-3.628-4.422-3.628c-2.203,0-5.076,0.776-6.986,1.887l-0.377,0.219l-0.602-5.942l0.205-0.075
		c2.727-0.998,5.826-1.546,8.729-1.546c7.165,0,10.223,2.643,10.223,8.837V35.39c0.395,0.062,0.834,0.123,1.293,0.183l0.244,0.032
		v5.002l-0.259,0.021c-1.707,0.133-3.556,0.204-5.347,0.204c-0.665,0-1.316-0.01-1.945-0.029l-0.271-0.008v-0.272
		c0-1.144,0.031-2.11,0.101-2.954C153.829,39.841,151.085,41.252,147.997,41.252z M154.748,29.875
		c-5.006,0.042-7.439,1.229-7.439,3.626c0,1.465,0.963,2.339,2.58,2.339c3.002,0,4.86-2.935,4.86-5.654L154.748,29.875
		L154.748,29.875z"/>
	<path fill="#C9CBCC" d="M165.695,40.756V20.98c-0.439-0.071-0.937-0.139-1.452-0.204l-0.246-0.031V15.77l0.258-0.021
		c1.763-0.141,3.677-0.215,5.535-0.215c0.685,0,1.358,0.01,2.013,0.03l0.272,0.008v0.272c0,0.797-0.06,2.04-0.211,3.391
		c1.147-2.158,3.135-4.195,6.543-4.195c0.237,0,0.479,0.01,0.729,0.031l0.27,0.022l-0.321,6.835l-0.323-0.068
		c-0.516-0.109-1.007-0.165-1.457-0.165c-3.246,0-4.892,2.938-4.892,8.734v10.325h-6.718V40.756L165.695,40.756z"/>
	<g>
		<g>
			<g opacity="0.55">
				<polygon fill="#B1B3B5" points="4.601,62.498 4.601,16.117 5.004,15.877 24.904,27.592 24.904,73.977 24.5,74.213 				"/>
			</g>
			<g opacity="0.55">
				<polygon fill="#CCCECF" points="24.095,73.977 24.095,27.592 43.993,15.877 44.395,16.117 44.395,62.498 24.5,74.213 				"/>
			</g>
			<g opacity="0.55">
				<polygon fill="#B9BBBD" points="4.601,16.578 4.601,16.116 24.542,4.364 44.395,16.117 44.395,16.578 24.5,28.292 				"/>
			</g>
			<g opacity="0.55">
				<polygon fill="#BBBDBF" points="31.65,46.236 31.65,28.141 32.053,27.903 46.189,36.235 46.189,54.329 45.785,54.567 				"/>
			</g>
			<g opacity="0.55">
				<polygon fill="#CCCECF" points="55.132,105.396 55.132,91.795 75.979,79.484 66.621,73.961 66.621,27.592 86.523,15.877 
					86.925,16.116 86.938,87.07 55.538,105.634 				"/>
			</g>
			<g opacity="0.55">
				<polygon fill="#B2B4B7" points="66.621,73.961 66.621,37.999 67.026,37.759 77.565,43.978 77.177,44.208 77.177,79.713 
					76.774,79.953 				"/>
			</g>
			<g opacity="0.55">
				<polygon fill="#A2A4A7" points="47.133,62.498 47.133,16.119 47.535,15.877 67.429,27.592 67.429,74.436 				"/>
			</g>
			<g opacity="0.55">
				<polygon fill="#DBDCDD" points="45.38,54.331 45.38,36.235 59.523,27.903 59.927,28.144 59.927,46.236 45.785,54.567 				"/>
			</g>
			<g opacity="0.55">
				<polygon fill="#C4C5C7" points="31.65,28.603 31.65,28.141 45.767,19.788 59.927,28.141 59.927,28.603 45.785,36.934 				"/>
			</g>
			<g opacity="0.55">
				<polygon fill="#B1B3B5" points="45.375,99.643 45.375,86.047 45.78,85.809 55.94,91.795 55.94,105.396 55.538,105.634 				"/>
			</g>
			<g opacity="0.55">
				<polygon fill="#B9BBBD" points="45.375,86.508 45.375,86.047 66.621,73.5 66.621,73.406 67.268,73.406 77.177,79.253 
					77.177,79.715 55.538,92.495 				"/>
			</g>
			<g opacity="0.55">
				<polygon fill="#C4C5C7" points="66.621,38.459 66.621,37.999 76.758,31.974 86.93,37.977 86.93,38.436 77.177,44.208 
					77.177,44.688 				"/>
			</g>
			<g opacity="0.55">
				<polygon fill="#B9BBBD" points="47.133,16.578 47.133,16.119 66.998,4.364 86.925,16.116 86.925,16.578 67.027,28.292 				"/>
			</g>
		</g>
		<g opacity="0.65">
			<polygon fill="none" stroke="#676767" stroke-miterlimit="10" points="45.122,99.99 45.124,86.045 65.814,73.816 46.886,62.676 
				46.886,54.208 45.783,54.859 44.641,54.185 44.641,62.676 24.403,74.594 4.162,62.676 4.162,15.796 24.446,3.842 44.641,15.797 
				44.641,20.001 45.767,19.335 46.886,19.997 46.886,15.796 67.096,3.842 87.365,15.796 87.376,87.359 55.581,106.158 			"/>
		</g>
	</g>
	<g>
		<g>
			<g opacity="0.55">
				<polygon fill="#B1B3B5" points="4.601,62.498 4.601,16.117 5.004,15.877 24.904,27.592 24.904,73.977 24.5,74.213 				"/>
			</g>
			<g opacity="0.55">
				<polygon fill="#CCCECF" points="24.095,73.977 24.095,27.592 43.993,15.877 44.395,16.117 44.395,62.498 24.5,74.213 				"/>
			</g>
			<g opacity="0.55">
				<polygon fill="#B9BBBD" points="4.601,16.578 4.601,16.116 24.542,4.364 44.395,16.117 44.395,16.578 24.5,28.292 				"/>
			</g>
			<g opacity="0.55">
				<polygon fill="#BBBDBF" points="31.65,46.236 31.65,28.141 32.053,27.903 46.189,36.235 46.189,54.329 45.785,54.567 				"/>
			</g>
			<g opacity="0.55">
				<polygon fill="#CCCECF" points="55.132,105.396 55.132,91.795 75.979,79.484 66.621,73.961 66.621,27.592 86.523,15.877 
					86.925,16.116 86.938,87.07 55.538,105.634 				"/>
			</g>
			<g opacity="0.55">
				<polygon fill="#B2B4B7" points="66.621,73.961 66.621,37.999 67.026,37.759 77.565,43.978 77.177,44.208 77.177,79.713 
					76.774,79.953 				"/>
			</g>
			<g opacity="0.55">
				<polygon fill="#A2A4A7" points="47.133,62.498 47.133,16.119 47.535,15.877 67.429,27.592 67.429,74.436 				"/>
			</g>
			<g opacity="0.55">
				<polygon fill="#DBDCDD" points="45.38,54.331 45.38,36.235 59.523,27.903 59.927,28.144 59.927,46.236 45.785,54.567 				"/>
			</g>
			<g opacity="0.55">
				<polygon fill="#C4C5C7" points="31.65,28.603 31.65,28.141 45.767,19.788 59.927,28.141 59.927,28.603 45.785,36.934 				"/>
			</g>
			<g opacity="0.55">
				<polygon fill="#B1B3B5" points="45.375,99.643 45.375,86.047 45.78,85.809 55.94,91.795 55.94,105.396 55.538,105.634 				"/>
			</g>
			<g opacity="0.55">
				<polygon fill="#B9BBBD" points="45.375,86.508 45.375,86.047 66.621,73.5 66.621,73.406 67.268,73.406 77.177,79.253 
					77.177,79.715 55.538,92.495 				"/>
			</g>
			<g opacity="0.55">
				<polygon fill="#C4C5C7" points="66.621,38.459 66.621,37.999 76.758,31.974 86.93,37.977 86.93,38.436 77.177,44.208 
					77.177,44.688 				"/>
			</g>
			<g opacity="0.55">
				<polygon fill="#B9BBBD" points="47.133,16.578 47.133,16.119 66.998,4.364 86.925,16.116 86.925,16.578 67.027,28.292 				"/>
			</g>
		</g>
		<g opacity="0.65">
			<polygon fill="none" stroke="#676767" stroke-miterlimit="10" points="45.122,99.99 45.124,86.045 65.814,73.816 46.886,62.676 
				46.886,54.208 45.783,54.859 44.641,54.185 44.641,62.676 24.403,74.594 4.162,62.676 4.162,15.796 24.446,3.842 44.641,15.797 
				44.641,20.001 45.767,19.335 46.886,19.997 46.886,15.796 67.096,3.842 87.365,15.796 87.376,87.359 55.581,106.158 			"/>
		</g>
	</g>
</g>
</svg>
